<?xml version="1.0" standalone="no"?>
<!DOCTYPE svg PUBLIC "-//W3C//DTD SVG 1.1//EN" "http://www.w3.org/Graphics/SVG/1.1/DTD/svg11.dtd" >
<svg xmlns="http://www.w3.org/2000/svg">
<metadata>Generated by IcoMoon</metadata>
<defs>
<font id="icomoon" horiz-adv-x="1024">
<font-face units-per-em="1024" ascent="960" descent="-64" />
<missing-glyph horiz-adv-x="1024" />
<glyph unicode="&#x20;" horiz-adv-x="512" d="" />
<glyph unicode="&#xe600;" glyph-name="location" horiz-adv-x="640" d="M320 960c-177 0-320-143-320-320s160-416 320-704c160 288 320 527 320 704s-143 320-320 320zM320 512c-71 0-128 57-128 128s57 128 128 128 128-57 128-128-57-128-128-128z" />
<glyph unicode="&#xe601;" glyph-name="youtube" d="M731.429 438.857q0 21.143-17.143 30.857l-292.571 182.857q-17.714 11.429-37.143 1.143-18.857-10.286-18.857-32v-365.714q0-21.714 18.857-32 9.143-4.571 17.714-4.571 11.429 0 19.429 5.714l292.571 182.857q17.143 9.714 17.143 30.857zM1024 438.857q0-54.857-0.571-85.714t-4.857-78-12.857-84.286q-9.143-41.714-39.429-70.286t-70.857-33.143q-126.857-14.286-383.429-14.286t-383.429 14.286q-40.571 4.571-71.143 33.143t-39.714 70.286q-8 37.143-12.286 84.286t-4.857 78-0.571 85.714 0.571 85.714 4.857 78 12.857 84.286q9.143 41.714 39.429 70.286t70.857 33.143q126.857 14.286 383.429 14.286t383.429-14.286q40.571-4.571 71.143-33.143t39.714-70.286q8-37.143 12.286-84.286t4.857-78 0.571-85.714z" />
<glyph unicode="&#xe602;" glyph-name="menu" d="M128 170.667h768v85.333h-768v-85.333zM128 384h768v85.333h-768v-85.333zM128 682.667v-85.333h768v85.333h-768z" />
<glyph unicode="&#xe603;" glyph-name="social-facebook" d="M554.667 512h128v-128h-128v-298.667h-128v298.667h-128v128h128v53.547c0 50.731 15.957 114.816 47.701 149.845 31.744 35.115 71.381 52.608 118.869 52.608h89.429v-128h-89.6c-21.248 0-38.4-17.152-38.4-38.357v-89.643z" />
<glyph unicode="&#xe604;" glyph-name="social-twitter" d="M805.973 639.488c34.475 21.163 57.301 50.048 68.48 86.784-33.536-17.792-66.944-29.995-100.309-36.736-29.995 32.256-67.968 48.64-113.493 48.64-44.501 0-82.091-15.616-112.768-45.995-30.507-30.592-45.909-67.755-45.909-111.147 0-13.184 1.664-24.96 4.992-34.944-131.243 4.48-239.872 58.923-325.461 163.712-14.507-25.643-21.76-51.755-21.76-78.763 0-55.509 23.424-99.499 70.187-131.797-26.667 2.261-50.176 9.003-70.187 20.053 0-39.637 11.648-72.747 34.987-101.888 23.424-28.843 53.504-47.232 90.24-55.083-13.312-3.413-27.349-5.035-41.771-5.035-13.312 0-22.741 1.109-28.331 3.541 9.813-32.299 28.331-58.496 55.083-78.549 26.667-20.139 57.344-30.763 91.819-31.701-56.832-44.587-121.813-66.645-195.328-66.645-18.005 0-30.763 0.256-38.485 1.621 72.405-47.019 153.003-70.357 242.176-70.357 91.264 0 171.904 23.125 242.091 69.376 70.187 45.995 121.984 102.741 155.264 169.557 33.451 66.731 50.005 136.192 50.005 208.725v19.968c32.341 24.32 58.496 51.712 78.507 81.963-29.013-12.501-59.008-20.992-90.027-25.301z" />
<glyph unicode="&#xe605;" glyph-name="close" d="M810.667 768q18.333 0 30.5-12.167t12.167-30.5q0-18-12.333-30.333l-268.667-268.333 268.667-268.333q12.333-12.333 12.333-30.333 0-18.333-12.167-30.5t-30.5-12.167q-18 0-30.333 12.333l-268.333 268.667-268.333-268.667q-12.333-12.333-30.333-12.333-18.333 0-30.5 12.167t-12.167 30.5q0 18 12.333 30.333l268.667 268.333-268.667 268.333q-12.333 12.333-12.333 30.333 0 18.333 12.167 30.5t30.5 12.167q18 0 30.333-12.333l268.333-268.667 268.333 268.667q12.333 12.333 30.333 12.333z" />
<glyph unicode="&#xe606;" glyph-name="arrow-right" d="M389.171 285.798c-13.722-13.875-13.722-36.301 0-50.125 13.67-13.875 35.891-13.875 49.613 0l196.096 200.038c13.722 13.875 13.722 36.301 0 50.125l-196.096 200.090c-13.722 13.875-35.891 13.875-49.613 0s-13.722-36.25-0.051-50.074l160.819-175.053-160.768-175.002z" />
<glyph unicode="&#xe607;" glyph-name="arrow-left" d="M634.829 285.798c13.722-13.875 13.722-36.301 0-50.125-13.722-13.875-35.891-13.875-49.613 0l-196.096 200.038c-13.722 13.875-13.722 36.301 0 50.125l196.096 200.090c13.722 13.875 35.891 13.875 49.613 0s13.722-36.25 0-50.125l-160.768-175.002 160.768-175.002z" />
<glyph unicode="&#xe608;" glyph-name="arrow-down" d="M687.002 583.629c13.875 13.722 36.301 13.722 50.125 0 13.875-13.722 13.875-35.891 0-49.613l-200.038-196.096c-13.875-13.722-36.301-13.722-50.125 0l-200.090 196.096c-13.824 13.722-13.824 35.891 0 49.613 13.875 13.722 36.25 13.722 50.125 0l175.002-160.768 175.002 160.768z" />
<glyph unicode="&#xe609;" glyph-name="arrow-up" d="M336.947 337.971c-13.875-13.722-36.25-13.722-50.125 0-13.824 13.722-13.875 35.891 0 49.664l200.090 195.994c13.875 13.722 36.301 13.722 50.125 0l200.090-196.045c13.875-13.773 13.875-35.942 0-49.664s-36.25-13.722-50.125 0l-175.053 160.819-175.002-160.768z" />
<glyph unicode="&#xe60a;" glyph-name="phone" horiz-adv-x="805" d="M804.571 242.286q0-15.429-5.714-40.286t-12-39.143q-12-28.571-69.714-60.571-53.714-29.143-106.286-29.143-15.429 0-30 2t-32.857 7.143-27.143 8.286-31.714 11.714-28 10.286q-56 20-100 47.429-73.143 45.143-151.143 123.143t-123.143 151.143q-27.429 44-47.429 100-1.714 5.143-10.286 28t-11.714 31.714-8.286 27.143-7.143 32.857-2 30q0 52.571 29.143 106.286 32 57.714 60.571 69.714 14.286 6.286 39.143 12t40.286 5.714q8 0 12-1.714 10.286-3.429 30.286-43.429 6.286-10.857 17.143-30.857t20-36.286 17.714-30.571q1.714-2.286 10-14.286t12.286-20.286 4-16.286q0-11.429-16.286-28.571t-35.429-31.429-35.429-30.286-16.286-26.286q0-5.143 2.857-12.857t4.857-11.714 8-13.714 6.571-10.857q43.429-78.286 99.429-134.286t134.286-99.429q1.143-0.571 10.857-6.571t13.714-8 11.714-4.857 12.857-2.857q10.286 0 26.286 16.286t30.286 35.429 31.429 35.429 28.571 16.286q8 0 16.286-4t20.286-12.286 14.286-10q14.286-8.571 30.571-17.714t36.286-20 30.857-17.143q40-20 43.429-30.286 1.714-4 1.714-12z" />
<glyph unicode="&#xe60e;" glyph-name="staff" horiz-adv-x="1126" d="M768 611.84c0-84.831-68.769-153.6-153.6-153.6s-153.6 68.769-153.6 153.6c0 84.831 68.769 153.6 153.6 153.6s153.6-68.769 153.6-153.6zM337.92 765.44c0-79.176-64.184-143.36-143.36-143.36s-143.36 64.184-143.36 143.36c0 79.176 64.184 143.36 143.36 143.36s143.36-64.184 143.36-143.36zM1075.2 181.76c0-113.108-91.692-204.8-204.8-204.8s-204.8 91.692-204.8 204.8c0 113.108 91.692 204.8 204.8 204.8s204.8-91.692 204.8-204.8z" />
<glyph unicode="&#xe612;" glyph-name="search" d="M1000.64 70.848l-184.896 184.896c50.688 72.576 80.64 160.704 80.64 255.936 0 247.424-200.64 448-448 448s-448-200.576-448-448c0-247.424 200.576-448 448-448 95.232 0 183.424 29.952 256 80.64l184.896-184.896c30.72-30.72 80.64-30.72 111.36 0s30.72 80.576 0 111.424zM448.32 191.616c-176.704 0-320 143.232-320 320s143.296 320 320 320c176.768 0 320-143.232 320-320 0.064-176.768-143.168-320-320-320z" />
<glyph unicode="&#xe61d;" glyph-name="envelope" d="M0 149.334c0-47.146 38.186-85.334 85.334-85.334h853.334c47.146 0 85.334 38.186 85.334 85.334l-0.002 576c0 47.146-38.186 85.334-85.334 85.334l-853.332-0.002c-47.146 0-85.334-38.186-85.334-85.334v-575.998zM314.026 436.694l-195.2 196.48c-16.192 16.214-16.192 42.454 0 58.666 16.234 16.214 42.474 16.214 58.666 0l311.468-311.872c12.586-12.374 33.302-12.374 45.674 0l311.872 311.872c16.214 16.214 42.454 16.214 58.666 0 16.214-16.214 16.214-42.454 0-58.666l-195.414-196.48 195.414-195.178c16.214-16.214 16.214-42.454 0-58.666s-42.454-16.214-58.666 0l-195.2 194.986c0 0-60.992-62.080-72.086-73.174-17.3-16.876-41.194-27.328-67.22-27.328-26.454 0-50.346 10.666-67.626 27.968-11.306 11.094-71.894 72.512-71.894 72.512l-195.008-194.986c-16.192-16.214-42.432-16.214-58.666 0-16.192 16.214-16.192 42.454 0 58.666l195.22 195.2z" />
<glyph unicode="&#xe900;" glyph-name="almohadamemoryfoam-01" horiz-adv-x="1013" d="M952.552 153.115l-205.229 174.353c43.208 60.054 69.303 133.245 69.303 212.959 0 202.548-164.701 367.428-367.249 367.428-202.459 0-367.339-164.88-367.339-367.428s164.836-367.249 367.339-367.249c63.718 0 122.699 17.694 174.934 46.336l212.825-181.86c31.814-31.948 83.513-31.948 115.416 0 31.814 31.948 31.814 83.513 0 115.461zM227.034 540.427c0 122.789 99.777 222.343 222.387 222.343s222.432-99.598 222.432-222.343c0-122.61-99.777-222.208-222.432-222.208-122.61 0-222.387 99.598-222.387 222.208z" />
<glyph unicode="&#xe901;" glyph-name="almohadas-01" horiz-adv-x="1230" d="M776.39 755.464l53.248 78c5.153 7.135 10.086 13.477 15.503 20.656l-0.088 0.529-68.751-3.832-1.013 18.63 96.851 5.373 0.529-14.446-52.543-76.899c-4.889-7.355-9.822-13.962-15.151-20.832v-0.529l74.257 4.14 1.013-18.41-103.149-5.726-0.705 13.345zM1073.372 772.024l53.336 78c5.065 7.135 9.998 13.477 15.415 20.656v0.529l-68.795-3.876-1.013 18.674 96.851 5.417 0.529-14.446-52.543-76.899c-4.801-7.399-9.734-14.006-15.151-20.92v-0.529l74.345 4.184 1.013-18.366-103.149-5.77-0.837 13.345zM899.843 767.884l75.358 110.328c7.311 10.086 14.182 19.027 21.845 29.156v0.705l-97.291-5.417-1.453 26.382 136.93 7.619 0.793-20.392-74.345-108.786c-6.871-10.438-13.83-19.731-21.405-29.509v-0.749l105.043 5.858 1.453-25.985-145.87-8.148-1.057 18.938zM948.73-13.174h-644.217c-121.471 0-220.215 98.833-220.215 220.215v261.527c0 121.383 98.788 220.215 220.215 220.215h644.217c121.471 0 220.215-98.788 220.215-220.215v-261.527c0-121.383-98.788-220.215-220.215-220.215zM304.513 600.653c-72.847 0-132.129-59.238-132.129-132.129v-261.527c0-72.847 59.282-132.129 132.129-132.129h644.217c72.935 0 132.129 59.282 132.129 132.129v261.527c0 72.847-59.194 132.129-132.129 132.129h-644.217zM951.021 417.038h-233.736c-28.804 0-52.367 23.563-52.367 52.367v0c0 28.804 23.563 52.455 52.367 52.455h233.736c28.804 0 52.367-23.651 52.367-52.455v0c0.044-28.804-23.519-52.367-52.367-52.367zM120.59 9.772h-4.58c-40.52 0-73.728 33.12-73.728 73.728v0c0 40.52 33.208 73.728 73.728 73.728h4.58c40.52 0 73.728-33.208 73.728-73.728v0c0-40.608-33.208-73.728-73.728-73.728zM1127.017 9.772h-4.58c-40.608 0-73.728 33.12-73.728 73.728v0c0 40.52 33.12 73.728 73.728 73.728h4.58c40.52 0 73.728-33.208 73.728-73.728v0c0-40.608-33.208-73.728-73.728-73.728zM1127.017 564.67h-4.58c-40.608 0-73.728 33.164-73.728 73.728v0c0 40.564 33.12 73.728 73.728 73.728h4.58c40.52 0 73.728-33.164 73.728-73.728v0c0-40.564-33.208-73.728-73.728-73.728zM120.59 541.239h-4.58c-40.52 0-73.728 33.208-73.728 73.728v0c0 40.608 33.208 73.772 73.728 73.772h4.58c40.52 0 73.728-33.164 73.728-73.772v0c0-40.476-33.208-73.728-73.728-73.728z" />
<glyph unicode="&#xe902;" glyph-name="canasta-01" horiz-adv-x="1212" d="M73.022 840.557h118.925l169.537-612.941c4.849-18.032 21.469-30.414 40.16-30.414h520.851c16.619 0 31.167 9.651 38.088 24.906l189.546 435.777c5.508 13.135 4.143 27.683-3.484 39.453-7.58 11.77-20.715 18.644-34.557 18.644h-575.559c-22.834 0-41.525-18.644-41.525-41.478s18.644-41.525 41.525-41.525h511.906l-153.576-352.821h-462.095l-169.537 612.988c-4.849 18.032-21.422 30.414-40.113 30.414h-150.093c-22.834 0-41.525-18.644-41.525-41.478s18.691-41.525 41.525-41.525zM362.19-16.166c51.883 0 94.067 42.184 94.067 94.114 0 51.883-42.184 94.067-94.067 94.067s-94.067-42.184-94.067-94.067c0-51.883 42.184-94.114 94.067-94.114zM950.225-16.26c2.024 0 4.849 0 6.874 0 24.906 2.072 47.74 13.135 64.359 32.486 16.572 18.644 24.199 42.89 22.787 68.502-3.484 51.176-48.446 90.583-100.328 87.193-51.883-3.484-90.63-49.152-87.193-100.328 3.531-49.105 44.35-87.852 93.502-87.852z" />
<glyph unicode="&#xe903;" glyph-name="Capturadepantalla2015-08-26alas135022-01" horiz-adv-x="1411" d="M1224.37 777.101c-191.592-191.592-383.185-383.185-574.861-574.777 25.746 0 51.325 0 77.072 0-190.673 190.673-381.346 381.346-571.935 571.935-49.737 49.737-126.725-27.335-76.988-76.988 190.673-190.673 381.262-381.346 571.852-571.935 20.982-20.982 56.090-20.982 77.072 0 191.592 191.592 383.185 383.185 574.861 574.777 49.737 49.654-27.335 126.642-77.072 76.988v0z" />
<glyph unicode="&#xe904;" glyph-name="cerrar-01" horiz-adv-x="1074" d="M883.811 232.035l-216.097 216.097 216.097 216.097c45.651 45.651 45.651 119.709 0 165.426-45.651 45.585-119.643 45.585-165.293 0l-216.097-216.097-216.097 216.097c-45.651 45.651-119.709 45.651-165.426 0-45.518-45.585-45.518-119.709 0-165.359l216.097-216.097-216.031-216.097c-45.651-45.585-45.651-119.709 0-165.359s119.643-45.651 165.293 0l216.097 216.097 216.097-216.097c45.518-45.651 119.643-45.651 165.293 0s45.783 119.709 0.066 165.293z" />
<glyph unicode="&#xe905;" glyph-name="circulopequeo-01" horiz-adv-x="960" d="M860.331 419.499c0-217.921-176.66-394.581-394.581-394.581s-394.581 176.66-394.581 394.581c0 217.921 176.66 394.581 394.581 394.581s394.581-176.66 394.581-394.581z" />
<glyph unicode="&#xe906;" glyph-name="circulo-01" horiz-adv-x="1106" d="M893.256 462.281c0-179.977-145.9-325.878-325.878-325.878s-325.878 145.9-325.878 325.878c0 179.977 145.9 325.878 325.878 325.878s325.878-145.9 325.878-325.878z" />
<glyph unicode="&#xe907;" glyph-name="cocina-01" horiz-adv-x="823" d="M426.197 547.88c11.472 0 22.788-0.856 33.948-2.217l19.715 344.224c0 17.227-13.96 31.265-31.187 31.265h-46.936c-17.227 0-31.226-13.999-31.226-31.265l14.66-345.274c13.455 1.944 27.065 3.266 41.025 3.266zM429.152 885.921c12.91 0 23.41-10.499 23.41-23.449s-10.499-23.449-23.41-23.449c-12.988 0-23.487 10.499-23.487 23.449s10.499 23.449 23.487 23.449zM426.197 72.181c104.41 0 189.416 84.967 189.416 189.416s-85.006 189.378-189.416 189.378c-104.449 0-189.416-84.967-189.416-189.378 0-104.449 84.967-189.416 189.416-189.416zM426.197-9.014c149.441 0 270.573 121.171 270.573 270.651 0 138.242-103.672 252.063-237.558 268.395-10.849 1.322-21.815 2.255-33.054 2.255-13.766 0-27.182-1.361-40.325-3.344-130.348-19.521-230.286-131.592-230.286-267.306 0.039-149.48 121.171-270.651 270.651-270.651zM387.699 478.507c12.521 2.217 25.354 3.578 38.498 3.578 11.316 0 22.321-1.128 33.209-2.761 105.771-16.099 187.278-107.444 187.278-217.687 0-121.598-98.889-220.487-220.448-220.487-121.521 0-220.487 98.889-220.487 220.487-0.039 108.377 78.706 198.594 181.95 216.87z" />
<glyph unicode="&#xe908;" glyph-name="cupon-01" horiz-adv-x="1172" d="M335.144 367.491l174.899-174.899 320.853 320.899-174.854 174.899-320.899-320.899zM1034.286 607.698l-74.456 74.411c-14.199-7.737-30.356-12.197-47.65-12.197-55.068 0-99.715 44.692-99.715 99.715 0 17.249 4.46 33.496 12.197 47.696l-74.456 74.456c-19.388 19.388-51.063 19.388-70.497 0l-542.083-542.128c-19.388-19.388-19.388-51.109 0-70.497l74.456-74.411c14.199 7.691 30.447 12.106 47.696 12.106 55.068 0 99.669-44.601 99.669-99.624 0-17.294-4.415-33.496-12.151-47.741l74.411-74.365c19.388-19.433 51.109-19.433 70.497 0l542.083 542.083c19.388 19.388 19.388 51.154 0 70.497v0zM510.043 112.583l-254.862 254.908 400.862 400.862 254.908-254.862-400.907-400.907z" />
<glyph unicode="&#xe909;" glyph-name="delivery-01" horiz-adv-x="956" d="M489.878 430.714v-360.989l287.388 54.547v175.857c0 7.362 6.406 13.1 13.732 12.252l35.366-5.467c6.207-0.722 10.899-5.973 10.899-12.252v-204.313c0-5.792-4.060-10.844-9.726-12.053l-314.598-67.647c-15.211-3.266-30.928-3.302-46.139-0.090l-311.224 65.464c-5.594 1.155-9.617 6.027-9.78 11.729l-5.377 207.507c-0.18 6.496 4.764 12.017 11.241 12.577l264.345 23.241c4.583 0.397 8.571 3.338 10.303 7.579l39.823 96.716c5.179 12.505 23.746 8.842 23.746-4.655zM137.442 548.884l-82.967-177.319c-4.060-8.661 2.887-18.441 12.414-17.485l311.549 31.469c4.403 0.433 8.246 3.212 10.051 7.254l100.235 225.839-342.314-62.865c-3.952-0.722-7.29-3.284-8.968-6.893zM488.705 618.661l106.081-232.895c1.859-4.078 5.756-6.821 10.213-7.163l310.953-25.009c9.365-0.758 16.095 8.842 12.198 17.394l-81.108 177.806c-1.66 3.663-5.034 6.297-9.022 7.019l-349.315 62.847zM401.534 802.548l76.976-133.328c5.936-10.249 20.751-10.249 26.687 0l76.994 133.328c5.918 10.249-1.48 23.096-13.335 23.096h-38.488v81.758c0 8.517-6.893 15.41-15.41 15.41h-46.211c-8.517 0-15.41-6.893-15.41-15.41v-81.758h-38.47c-11.855 0-19.271-12.847-13.335-23.096z" />
<glyph unicode="&#xe90a;" glyph-name="descarga-01" horiz-adv-x="1080" d="M766.513 516.903h-149.364v296.371c0 42.812-34.62 77.431-77.375 77.431-42.868 0-77.487-34.62-77.487-77.431v-296.371h-149.364c-28.953 0-36.808-17.618-17.45-39.221l209.008-232.574c19.414-21.602 51.060-21.602 70.474 0l209.008 232.574c19.358 21.546 11.559 39.221-17.45 39.221zM933.607 0.358h-787.835c-34.171 0-62.001 27.943-62.001 62.001v0c0 34.059 27.83 62.001 62.001 62.001h787.835c34.171 0 62.001-27.943 62.001-62.001v0c0.056-34.059-27.774-62.001-62.001-62.001z" />
<glyph unicode="&#xe90b;" glyph-name="play" d="M512 960c-282.77 0-512-229.23-512-512s229.23-512 512-512 512 229.23 512 512-229.23 512-512 512zM512 32c-229.75 0-416 186.25-416 416s186.25 416 416 416 416-186.25 416-416-186.25-416-416-416zM384 672l384-224-384-224z" />
<glyph unicode="&#xe90c;" glyph-name="libro-01" horiz-adv-x="1479" d="M83.592 808.49h-57.469v-830.694h1374.041v73.143h-1316.571zM778.449 144.98c0 240.327 0 480.653 0 726.204-198.531 109.714-438.857 109.714-632.163 0 0-240.327 0-480.653 0-726.204 198.531 109.714 438.857 109.714 632.163 0zM167.184 92.735c193.306 41.796 402.286 41.796 595.592 0-188.082 94.041-407.51 94.041-595.592 0zM862.041 92.735c193.306 41.796 402.286 41.796 595.592 0-188.082 94.041-407.51 94.041-595.592 0zM1457.633 144.98c0 240.327 0 480.653 0 726.204-198.531 109.714-438.857 109.714-632.163 0 0-240.327 0-480.653 0-726.204 193.306 109.714 433.633 109.714 632.163 0z" />
<glyph unicode="&#xe90d;" glyph-name="otros-01" horiz-adv-x="969" d="M586.724 90.984c0-70.31-56.998-127.308-127.308-127.308s-127.308 56.998-127.308 127.308c0 70.31 56.998 127.308 127.308 127.308s127.308-56.998 127.308-127.308zM265.686 428.627c0-70.31-56.998-127.308-127.308-127.308s-127.308 56.998-127.308 127.308c0 70.31 56.998 127.308 127.308 127.308s127.308-56.998 127.308-127.308zM940.973 428.627c0-70.31-56.998-127.308-127.308-127.308s-127.308 56.998-127.308 127.308c0 70.31 56.998 127.308 127.308 127.308s127.308-56.998 127.308-127.308zM592.259 461.838c0-70.31-56.998-127.308-127.308-127.308s-127.308 56.998-127.308 127.308c0 70.31 56.998 127.308 127.308 127.308s127.308-56.998 127.308-127.308zM592.259 810.551c0-70.31-56.998-127.308-127.308-127.308s-127.308 56.998-127.308 127.308c0 70.31 56.998 127.308 127.308 127.308s127.308-56.998 127.308-127.308z" />
<glyph unicode="&#xe90e;" glyph-name="star-3" d="M1022.739 567.383c-3.363 10.299-12.19 17.655-22.91 19.337l-319.475 45.399-143.764 288.998c-4.834 9.668-14.713 15.764-25.432 15.764v0c-10.719 0-20.598-6.095-25.432-15.974l-141.872-289.839-319.475-47.501c-10.719-1.681-19.547-9.038-22.91-19.337s-0.42-21.649 7.356-29.005l231.829-224.683-53.596-318.213c-1.892-10.719 2.522-21.438 11.35-27.744 4.834-3.573 10.719-5.465 16.604-5.465 4.624 0 9.038 1.051 13.241 3.363l285.215 151.12 286.056-149.438c4.204-2.102 8.617-3.153 13.031-3.153v0c15.553 0 28.374 12.821 28.374 28.374 0 2.312-0.21 4.414-0.841 6.516l-55.278 316.322 230.358 225.944c8.197 7.567 10.929 18.916 7.567 29.215z" />
<glyph unicode="&#xe90f;" glyph-name="star-two" d="M1022.739 567.383c-3.363 10.299-12.19 17.655-22.91 19.337l-319.475 45.399-143.764 288.998c-4.834 9.668-14.713 15.764-25.432 15.764v0c-10.719 0-20.598-6.095-25.432-15.974l-141.872-289.839-319.475-47.501c-10.719-1.681-19.547-9.038-22.91-19.337s-0.42-21.649 7.356-29.005l231.829-224.683-53.596-318.213c-1.892-10.719 2.522-21.438 11.35-27.744 4.834-3.573 10.719-5.465 16.604-5.465 4.624 0 9.038 1.051 13.241 3.363l285.215 151.12 286.056-149.438c4.204-2.102 8.617-3.153 13.031-3.153v0c15.553 0 28.374 12.821 28.374 28.374 0 2.312-0.21 4.414-0.841 6.516l-55.278 316.322 230.358 225.944c8.197 7.567 10.929 18.916 7.567 29.215zM734.791 342.279c-6.726-6.516-9.668-15.974-7.987-25.222l48.131-275.967-248.433 129.681c-8.197 4.414-18.076 4.204-26.483 0l-247.593-131.153 46.45 276.388c1.471 9.248-1.471 18.496-8.197 25.011l-200.933 195.048 277.228 41.195c9.248 1.471 17.235 7.146 21.228 15.553l123.166 251.586 124.847-250.956c4.204-8.407 12.19-14.082 21.438-15.553l277.438-39.514-200.302-196.099z" />
<glyph unicode="&#xe910;" glyph-name="fb-01" horiz-adv-x="674" d="M538.59 920.584l-123.014 0.235c-138.156 0-227.462-91.623-227.462-233.405v-107.604h-123.686c-10.676 0-19.338-8.696-19.338-19.372v-155.917c0-10.676 8.729-19.338 19.338-19.338h123.686v-393.451c0-10.676 8.662-19.338 19.338-19.338h161.389c10.676 0 19.271 8.662 19.271 19.338v393.417h144.602c10.744 0 19.338 8.662 19.338 19.338l0.067 155.917c0 5.137-2.048 10.072-5.64 13.665-3.592 3.626-8.528 5.708-13.698 5.708h-144.669v91.22c0 43.847 10.475 66.107 67.618 66.107l82.826 0.034c10.676 0 19.338 8.662 19.338 19.338v144.77c-0.034 10.676-8.696 19.338-19.305 19.338z" />
<glyph unicode="&#xe911;" glyph-name="fitness-01" horiz-adv-x="961" d="M484.68 275.989c37.849-2.767 134.842-14.915 172.691-17.682 21.059-6.519-39.303 8.536-17.963 3.095 31.33-7.879 67.163-0.281 92.349-30.486 2.908-3.565 28.751 3.846 35.458 12.663 62.942 82.828 77.856 174.333 45.26 273.717-12.194 37.005-21.809 74.949-33.066 114.299 12.476 4.409 22.513 7.926 30.298 10.647 44.134-126.869 81.421-252.799 13.555-381.59-2.204-4.127-4.315-8.255-6.519-12.288-27.484-54.312-67.96-52.389-118.426-48.355-73.119 5.863-122.413 19.792-194.969 32.268-6.801 3.002-19.886 5.487-26.64 8.536-5.675 4.69-39.303 4.127-45.635 5.112-67.773 11.163-135.78 21.246-203.74 31.705-0.657 10.553-1.36 20.965-2.111 31.518 67.679-10.178 135.311-20.965 203.271-29.782 10.834-1.501 44.744-6.848 56.188-3.377zM691.281 865.494c-0.657-40.898-38.834-77.434-79.076-75.605-40.101 1.876-74.104 37.474-73.729 77.247 0.375 41.836 36.818 76.496 78.888 75.042 41.133-1.407 74.526-36.114 73.917-76.684zM843.429 53.676c-14.399 4.315-27.766 11.913-45.823 19.792 9.99 6.519 13.648 9.333 17.682 11.444 61.206 32.409 63.927 56.61 11.163 101.026-1.642 1.266-2.111 3.846-3.189 5.863-2.111 2.204-4.315 4.409-6.519 6.613-13.742-2.861-27.484-6.332-41.414-8.442-29.876-4.409-60.55-14.211-89.676-10.881-70.446 8.067-140.189 22.184-210.072 34.426-2.861 0.469-4.784 6.426-7.129 9.709-6.707 3.002-17.4 2.861-24.107 5.863-31.236 5.863-55.062 1.173-91.036 7.973 12.288-43.712 7.223-91.223-20.355-121.193-17.776-19.23-29.313-19.323-52.764-26.734-46.057-14.399-105.716 12.57-131.84 55.625-24.014 39.679-20.074 94.788 9.896 128.979 15.759 17.963 29.97 38.928 49.481 51.498 14.024 8.958 52.201 7.223 52.201 7.223l115.518-22.091c0 0 53.421-18.573 87.284-21.246 37.849-2.767 75.652-5.581 113.502-8.348 70.727-16.744 87.049-8.817 113.408 56.61 5.206 12.71 9.521 25.937 12.898 39.303 19.699 78.607-10.74 142.534-81.843 172.785-40.476 17.213-41.695 19.886-27.672 64.912 31.612-22.607 62.52-48.543 105.106-26.546-3.095 8.302-6.144 16.65-9.24 24.905-20.59 11.491-41.039 23.076-61.769 34.332-11.256 6.144-22.888 11.725-34.332 17.588 8.817-2.298 17.494-5.722 26.359-6.613 54.734-5.112 109.327-10.881 164.155-13.648 17.119-0.891 36.020 7.035 32.597 30.861-3.189 22.888-20.543 24.998-39.397 22.419-6.848-0.985-13.648-2.908-20.543-3.236-58.158-3.236-114.768 0.188-162.607 39.585 4.409 4.221 12.992 8.864 12.663 12.663-2.861 28.563-34.332 52.577-59.987 40.288-22.091-10.647-45.26-29.689-55.86-50.982-26.030-52.389-40.195-112.282-25.186-168.189 16.509-61.488 0.844-114.674-15.196-170.487-5.956-20.777-10.647-41.977-16.744-66.412 27.859-6.613 53.843-12.804 80.811-19.23 16.134 57.642 31.33 112.329 46.526 166.641 58.252-13.086 72.932-36.724 58.345-88.034-2.767-9.896-8.442-18.948-10.787-28.938-6.050-25.374-11.069-51.029-15.853-73.542-100.041 19.886-206.648 42.868-314.005 61.722-91.88 16.228-166.922-35.645-186.527-124.054-13.648-61.535 12.57-109.374 58.533-155.901-15.759-6.426-27.297-12.663-39.679-15.571-27.859-6.801-41.32-24.389-40.664-52.014 0.75-28.657 24.529-48.637 53.702-46.808 28.751 1.829 49.2 25.749 45.729 57.689-2.58 24.107 2.673 38.037 29.501 35.458 176.959-17.119 353.403-8.442 529.518 12.804 32.972 4.034 56.329-16.65 53.749-50.56-2.017-26.312 17.025-51.029 42.399-54.969 28.469-4.503 53.139 12.992 58.439 41.508 4.784 25.514-11.96 48.309-39.35 56.563zM698.222 587.931c-3.095 8.208-6.144 16.556-9.24 24.858-1.735 6.379-3.471 12.71-5.206 19.089 2.204 2.486 4.315 4.878 6.519 7.317 11.35-7.973 26.359-13.601 33.535-24.389 26.828-40.195 50.185-82.781 76.778-123.163 22.7-34.613 23.545-70.634 17.682-101.401-38.6 63.598-79.31 130.621-120.068 197.69zM800.468 707.342c-5.581 0-14.493 0-23.263 0-11.632 15.431 1.173 97.555 17.494 107.17 4.925 2.861 15.008 3.471 18.573 0.375 4.503-3.94 7.223-13.273 6.144-19.417-5.3-28.844-12.194-57.407-18.948-88.128zM816.789 248.364c2.204 4.034 4.315 8.161 6.519 12.288 10.553 16.603 21.153 33.159 31.705 49.762 1.923-0.563 3.752-0.985 5.581-1.454-7.692-35.551-15.008-71.103-23.638-106.373-0.985-4.409-8.864-7.223-13.648-10.74-2.111 2.204-4.315 4.409-6.519 6.613 0 16.556 0 33.206 0 49.903zM698.316 708.749c-31.987-6.426-44.979 2.204-39.866 25.186 2.767 12.335 13.086 22.982 19.98 34.379 6.426-19.183 12.851-38.412 19.886-59.565zM195.392 271.064c-40.945-36.442-47.464-81.609-18.667-120.349 26.359-35.551 72.65-45.166 111.016-22.982 37.849 21.809 51.92 67.773 36.161 107.827-9.99 25.561-32.315 33.253-49.575 23.638-32.315-18.198-56.141-12.57-78.935 11.866zM227.378 277.583c8.161-4.596 16.228-9.146 24.295-13.742-1.36-2.673-2.861-5.3-4.221-7.973-13.179 7.317-30.486 11.913-38.178 23.076-5.394 7.879-2.298 29.22 4.925 36.349 9.521 9.333 27.015 10.553 41.039 15.196 1.079-3.283 2.204-6.519 3.189-9.709-10.975-3.94-22.091-7.786-33.159-11.725 0.704-10.506 1.454-20.965 2.111-31.471zM195.392 264.451c22.794-24.436 46.62-30.064 78.982-11.913 17.213 9.615 39.585 1.923 49.575-23.638 15.759-40.054 1.642-86.017-36.161-107.827-38.365-22.184-84.657-12.57-111.016 22.982-28.844 38.788-22.325 83.954 18.62 120.396z" />
<glyph unicode="&#xe912;" glyph-name="flechaabajo-01" horiz-adv-x="1583" d="M1519.283 856.922l-730.429-797.074-730.429 797.074z" />
<glyph unicode="&#xe913;" glyph-name="flechaabajo-01-01" horiz-adv-x="1583" d="M1519.283 856.922l-730.429-797.074-730.429 797.074z" />
<glyph unicode="&#xe914;" glyph-name="flechaarriba-01" horiz-adv-x="1411" d="M161.667 203.243l549.7 599.939 549.7-599.939z" />
<glyph unicode="&#xe915;" glyph-name="flechaderecha-01" horiz-adv-x="1353" d="M741.882 5.733l482.418 449.65-483.429 448.386-136.432-146.799 209.098-193.928-685.296-0.759 0.202-216.431 685.195 0.809-208.593-194.383z" />
<glyph unicode="&#xe916;" glyph-name="flecha-01" horiz-adv-x="801" d="M185.675 865.211c148.843-148.843 297.686-297.686 446.561-446.561 0 19.932 0 39.896 0 59.827-148.101-148.133-296.202-296.267-444.271-444.335-38.606-38.606 21.222-98.465 59.827-59.827 148.101 148.133 296.202 296.267 444.271 444.335 16.287 16.319 16.287 43.54 0 59.827-148.843 148.843-297.686 297.686-446.561 446.561-38.573 38.606-98.401-21.222-59.827-59.827v0z" />
<glyph unicode="&#xe917;" glyph-name="hombre-01" horiz-adv-x="889" d="M147.958 70.279c0-17.93 14.684-32.575 32.613-32.575h552.921c17.93 0 32.613 14.645 32.613 32.575 0 180.34-81.456 335.138-196.067 397.042 55.451 36.362 91.812 99.386 91.812 170.525 0 112.447-91.812 204.22-204.22 204.22-112.447 0-204.8-91.233-204.8-204.22 0-71.139 36.4-133.584 91.812-170.525-115.229-61.904-196.685-216.702-196.685-397.042zM457.013 776.917c76.587 0 139.071-62.445 139.071-139.071 0-76.549-62.445-139.032-139.071-139.032-76.549 0-139.071 62.445-139.071 139.032 0 76.626 62.483 139.071 139.071 139.071zM457.013 432.002c127.131 0 231.385-145.022 242.785-329.148h-485.608c11.438 184.165 115.731 329.148 242.823 329.148z" />
<glyph unicode="&#xe918;" glyph-name="google-plus" d="M785.86 491.662h-366.733v-122.245h223.744c-33.377-106.277-132.646-183.368-249.943-183.368-144.676 0-261.951 117.284-261.951 261.953 0 144.676 117.28 261.951 261.951 261.951 72.854 0 138.748-29.748 186.23-77.751l88.735 96.45c-70.868 69.442-167.905 112.275-274.965 112.275-217.007 0.002-392.928-175.919-392.928-392.926s175.921-392.932 392.93-392.932c190.092 0 356.522 134.999 392.932 314.344v122.245l-0.002 0.002zM1024 491.87h-75.013v75.013h-64.302v-75.013h-75.013v-64.295h75.013v-75.015h64.302v75.015h75.013z" />
<glyph unicode="&#xe91a;" glyph-name="locutor-01" horiz-adv-x="1068" d="M464.918 420.737c0-22.968-18.63-41.643-41.643-41.643-22.968 0-41.599 18.674-41.599 41.643 0 23.012 18.63 41.643 41.599 41.643 23.012 0 41.643-18.63 41.643-41.643v0zM633.911 462.38c-22.968 0-41.643-18.63-41.643-41.643 0-22.968 18.674-41.643 41.643-41.643 23.012 0 41.643 18.674 41.643 41.643-0.022 23.012-18.63 41.643-41.643 41.643v0zM934.042 443.97v-79.145c0-39.705-32.217-71.922-71.966-71.922h-52.169c-51.706-143.602-183.791-230.323-281.281-230.323s-229.596 86.721-281.281 230.323h-52.169c-39.749 0-71.944 32.217-71.944 71.922v79.145c0 27.307 15.261 51.090 37.701 63.268 0.727 112.332 33.495 200.043 97.423 260.691 63.444 60.163 154.371 90.663 270.27 90.663 115.877 0 206.804-30.5 270.226-90.663 63.95-60.647 96.696-148.359 97.467-260.691 22.44-12.178 37.723-35.961 37.723-63.268v0zM781.763 420.473c0 18.498-0.947 35.917-2.312 52.742-31.909 29.201-89.892 51.398-163.003 59.634 9.601-10.813 17.881-24.994 22.924-43.713-44.814 35.322-132.724 26.888-199.229 105.857-3.832 4.426-7.091 8.654-9.976 12.464-0.044 0.066-0.044 0.088-0.044 0.088l-0.044 0.044c-11.826 16.010-15.878 25.523-16.076 14.997-1.982-90.773-66.285-161.528-137.722-171.526-0.462-9.976-0.859-20.040-0.859-30.588 0-38.361 6.276-73.332 16.957-104.866 40.123-48.381 106.408-62.057 165.073-65.668 10.879 17.331 35.322 29.421 63.752 29.421 38.582 0 69.852-22.198 69.852-49.592 0-27.351-31.271-49.592-69.852-49.592-29.685 0-54.966 13.169-65.074 31.689-40.982 2.356-86.060 9.381-126.227 28.342 56.507-83.263 144.043-127.306 198.744-127.306 85.906 0.022 253.115 108.61 253.115 307.574v0zM853.003 515.892c-4.558 196.013-116.428 299.581-324.377 299.581s-319.818-103.567-324.377-299.581h27.659c10.108 66.065 31.491 120.392 63.95 162.188 51.751 66.571 130.059 100.33 232.767 100.33s180.995-33.737 232.723-100.33c32.482-41.775 53.887-96.102 63.994-162.188h27.659z" />
<glyph unicode="&#xe91b;" glyph-name="mas-01" horiz-adv-x="1044" d="M852.285 545.908h-244.492v244.544c0 51.689-41.858 93.547-93.6 93.547-51.636 0-93.547-41.858-93.547-93.547v-244.544h-244.492c-51.689 0-93.547-41.858-93.547-93.547s41.858-93.547 93.547-93.547h244.492v-244.492c0-51.636 41.911-93.547 93.547-93.547 51.742 0 93.6 41.911 93.6 93.547v244.492h244.492c51.636 0 93.547 41.858 93.547 93.547s-41.911 93.547-93.547 93.547z" />
<glyph unicode="&#xe91c;" glyph-name="masajes-01" horiz-adv-x="1199" d="M1178.38 138.771c-7.998-25.201-26.363-37.534-50.983-44.772-40.662-12.064-80.295-27.569-121.136-38.919-58.177-16.131-113.405-6.524-165.327 24.173-49.285 29.133-98.928 57.775-148.616 86.238-5.317 3.038-12.154 4.692-18.32 4.781-168.41 0.179-336.776 0.179-505.186 0.179-35.702 0-63.539 13.807-81.1 45.979-26.944 49.151 7.283 114.925 63.137 121.046 6.211 0.715 12.377 1.028 18.588 1.028 183.558 0 367.16 0 550.673 0.089 30.34 0 55.988-9.339 74.263-34.719 16.086-22.252 20.241-46.872 12.645-73.146-1.921-6.613-1.028-9.786 5.004-13.271 31.233-17.694 61.707-36.908 93.387-53.754 23.101-12.198 48.66-15.192 73.995-7.328 40.796 12.735 81.278 26.452 121.851 39.991 23.548 7.864 45.621 7.239 63.092-12.467 6.166-6.971 9.428-16.309 13.986-24.62 0.045-6.836 0.045-13.718 0.045-20.509zM620.781 524.341c21.984-23.369 43.119-45.621 64.031-67.963 19.661-21.046 39.589-41.823 58.445-63.539 9.964-11.349 9.786-25.38 5.63-37.981-27.793 0.626-54.603 1.028-81.368 1.921-2.904 0.089-6.434 2.368-8.534 4.647-21.18 22.163-42.091 44.504-63.003 66.935-3.307 3.485-6.211 7.507-9.294 11.26-1.206-0.357-2.458-0.804-3.664-1.117-3.798-20.599-8.356-41.019-11.305-61.707-3.351-23.459-2.77-23.548-26.899-23.548-44.326 0-88.651 0-132.977 0-3.351 0-6.658 0-11.707 0 2.234 20.152 3.887 39.187 6.524 58.133 8.49 60.545 25.559 118.499 54.826 172.521 14.299 26.542 30.429 51.832 51.207 73.772 38.025 40.081 101.028 35.88 131.949-9.741 20.733-30.518 18.767-69.437-3.575-98.169-6.479-8.356-13.092-16.443-20.286-25.425zM952.105 207.36c-72.208 0.179-131.234 59.428-131.011 131.591 0.268 72.431 59.026 131.189 131.323 131.189 73.101 0 132.038-58.713 132.038-131.502 0-72.655-59.294-131.457-132.351-131.279zM732.622 659.373c-73.28 0.447-131.457 59.25-131.011 132.306 0.447 72.655 59.384 131.234 131.636 130.787 73.057-0.447 132.083-60.054 131.1-132.351-1.028-73.235-59.428-131.189-131.725-130.742zM750.451 101.908c-2.949 0-5.988 0-8.981 0-226.677 0-453.398-0.089-680.164 0.268-10.098 0-21.224 2.547-30.072 7.239-12.779 6.792-19.616 19.124-17.56 34.317 2.145 15.103 11.215 26.631 25.737 29.848 14.879 3.307 30.653 2.726 45.979 3.575 1.564 0.089 3.441-1.296 4.781-2.458 22.476-18.588 48.66-24.263 77.168-24.173 161.261 0.268 322.566 0 483.827 0.268 14.12 0.089 26.363-2.458 38.472-10.232 19.929-12.913 40.93-24.084 61.528-35.97-0.179-0.849-0.447-1.787-0.715-2.681z" />
<glyph unicode="&#xe91d;" glyph-name="calendar-alt-fill, date" d="M832 832v-65.504c0-70.752-57.248-128-128-128s-128 57.248-128 128v65.504h-128v-65.504c0-70.752-57.248-128-128-128s-128 57.248-128 128v65.504h-192v-896h1024v896h-192zM320 64h-128v128h128v-128zM320 320h-128v128h128v-128zM576 64h-128v128h128v-128zM576 320h-128v128h128v-128zM704 64v128h128l-128-128zM832 320h-128v128h128v-128zM256 768v128c0 35.36 28.64 64 64 64s64-28.64 64-64v-128c0-35.36-28.64-64-64-64s-64 28.64-64 64zM640 768v128c0 35.36 28.64 64 64 64s64-28.64 64-64v-128c0-35.36-28.64-64-64-64s-64 28.64-64 64z" />
<glyph unicode="&#xe91e;" glyph-name="calendar-alt-stroke, date2" d="M1024-64h-1024v896h128v-768h768v768h128zM192 576h128v-128h-128zM448 576h128v-128h-128zM704 576h128v-128h-128zM192 320h128v-128h-128zM448 320h128v-128h-128zM704 192v128h128zM256 768v128c0 35.36 28.64 64 64 64s64-28.64 64-64v-128c0-35.36-28.64-64-64-64s-64 28.64-64 64zM640 768v128c0 35.36 28.64 64 64 64s64-28.64 64-64v-128c0-35.36-28.64-64-64-64s-64 28.64-64 64z" />
<glyph unicode="&#xe91f;" glyph-name="telefono-01" horiz-adv-x="922" d="M306.064 844.601c0 0 7.923 5.108 33.671 3.023 25.853-2.085 40.76 6.88 92.257-109.145 49.099-110.396 28.667-184.305 20.745-187.224-21.162-7.923-36.694-7.923-36.694-7.923s20.953 187.329-109.979 301.268zM536.237 303.777c-4.9-3.44-11.78-5.317-22.621-4.9-17.305 1.042-62.234 50.246-92.987 86.106-26.687 34.192-83.083 109.145-79.643 129.472 6.15 37.007 30.544 24.393 53.165 28.667 2.085 45.659-1.668 189.413-110.5 292.303-5.629-0.521-11.571-1.981-17.096-5.942-40.239-27.938-87.045-59.628-108.206-130.306-15.845-53.582-38.154-138.125 100.597-340.569 11.154-19.702 29.084-44.2 55.458-74.118 5.004-5.942 9.903-11.154 14.49-16.054 177.842-195.46 268.64-191.811 325.766-187.537 54.729 4.066 91.631 26.687 121.758 51.706-37.007 38.988-133.33 133.121-240.181 171.171zM814.78 191.192c-115.399 156.368-256.964 163.873-261.030 155.951-3.44-7.089-4.9-15.116-6.463-22.413 17.305-6.15 45.242-20.328 93.821-48.891 86.94-51.497 136.978-103.828 153.97-126.866 3.44 3.232 6.88 6.359 10.216 9.382 11.884 11.050 13.135 27.729 9.486 32.837z" />
<glyph unicode="&#xe920;" glyph-name="ubicacion-01" horiz-adv-x="801" d="M400.021-26.362c-34.864 42.96-68.406 82.533-100.013 123.525-80.823 105.012-155.842 213.476-215.443 332.711-107.657 215.25 40.154 444.884 244.76 486.747 215.604 44.088 421.501-121.042 423.855-341.903 0.548-51.539-17.126-99.207-38.606-145.231-59.763-128.008-142.973-240.825-229.376-351.417-26.737-34.219-54.861-67.278-85.177-104.432zM399.118 326.7c134.329-0.677 243.889 107.399 244.663 241.406 0.774 135.2-107.625 245.244-242.632 246.212-133.265 1-243.889-108.431-244.663-242.051-0.806-135.652 107.044-244.889 242.632-245.566zM241.116 569.525c-0.387 87.5 70.309 159.196 157.873 160.099 87.79 0.903 160.421-71.664 160.131-159.97-0.29-87.338-71.89-159.034-158.97-159.099-86.984-0.161-158.712 71.599-159.034 158.97z" />
<glyph unicode="&#xe921;" glyph-name="utilitarios-01" horiz-adv-x="1092" d="M1056.617 492.476l-154.14 154.185v178.083c0 32.21-26.112 58.277-58.412 58.277-32.12 0-58.232-26.066-58.232-58.277v-61.484l-114.792 114.792c-56.741 56.741-155.45 56.65-212.010-0.090l-385.485-385.485c-22.769-22.814-22.769-59.677 0-82.446 22.769-22.814 59.632-22.814 82.401 0l385.485 385.485c12.514 12.469 34.695 12.469 47.209 0.045l385.485-385.53c11.475-11.384 26.383-17.076 41.291-17.076s29.816 5.692 41.2 17.076c22.769 22.769 22.769 59.632 0 82.446zM585.298 684.879c-11.113 11.158-29.274 11.158-40.478 0l-339.090-338.999c-5.286-5.376-8.403-12.649-8.403-20.284v-247.247c0-58.051 47.028-105.079 105.079-105.079h167.918v260.032h189.513v-260.032h167.918c57.961 0 104.989 47.028 104.989 105.079v247.247c0 7.635-2.982 14.908-8.403 20.284l-339.044 338.999z" />
<glyph unicode="&#xe922;" glyph-name="youtube-01" horiz-adv-x="879" d="M723.238 234.071h-52.751l0.218 30.683c0 13.633 11.234 24.794 24.867 24.794h3.417c13.633 0 24.939-11.161 24.939-24.794l-0.691-30.683zM525.288 299.8c-13.342 0-24.285-9.016-24.285-20.031v-149.127c0-11.015 10.943-19.959 24.285-19.959 13.488 0 24.43 8.943 24.43 19.959v149.127c0 11.015-10.943 20.031-24.43 20.031zM846.771 383.162v-283.602c0-68.019-59.004-123.678-131.131-123.678h-539.066c-72.128 0-131.131 55.659-131.131 123.678v283.602c0 68.019 59.004 123.715 131.131 123.715h539.066c72.128 0 131.131-55.695 131.131-123.715zM212.493 68.767v298.726h66.82v44.316l-178.138 0.218v-43.444l55.586-0.218v-299.562h55.732zM412.879 323.031h-55.732v-159.56c0-23.085 1.418-34.573-0.073-38.681-4.544-12.361-24.939-25.485-32.865-1.272-1.345 4.181-0.145 16.978-0.145 38.899l-0.218 160.615h-55.441l0.218-158.143c0-24.212-0.582-42.244 0.218-50.497 1.272-14.542 0.836-31.447 14.287-41.117 25.048-18.032 73.145 2.69 85.142 28.538l-0.073-32.937 44.716-0.073v254.228h-0.036zM591.089 140.349l-0.145 132.767c0 50.642-37.918 80.889-89.251 39.99l0.218 98.703-55.659-0.073-0.291-340.752 45.807 0.727 4.181 21.158c58.458-53.659 95.213-16.869 95.14 47.479zM765.482 157.945l-41.808-0.218c0-1.709-0.073-3.563-0.073-5.671v-23.303c0-12.506-10.361-22.649-22.867-22.649h-8.18c-12.579 0-22.867 10.143-22.867 22.649v61.257h95.649v35.991c0 26.357-0.654 52.678-2.836 67.656-6.835 47.661-73.618 55.186-107.355 30.829-10.579-7.598-18.686-17.814-23.376-31.447-4.762-13.706-7.162-32.392-7.162-56.168v-79.18c0.073-131.531 159.924-112.917 140.874 0.254zM551.136 587.729c2.908-6.98 7.38-12.651 13.415-16.905 5.962-4.217 13.633-6.326 22.794-6.326 8.034 0 15.196 2.145 21.377 6.617s11.343 11.161 15.632 20.031l-1.054-21.885h62.13v264.116h-48.933v-205.549c0-11.125-9.161-20.25-20.395-20.25-11.161 0-20.322 9.125-20.322 20.25v205.549h-51.042v-178.101c0-22.722 0.436-37.845 1.127-45.516 0.654-7.598 2.436-14.905 5.271-22.031zM362.964 736.928c0 25.339 2.145 45.152 6.326 59.44 4.181 14.215 11.779 25.63 22.794 34.246 11.015 8.652 25.048 12.979 42.099 12.979 14.396 0 26.684-2.799 37.009-8.325s18.323-12.76 23.776-21.667c5.671-8.943 9.525-18.105 11.488-27.484 2.145-9.561 3.126-23.885 3.126-43.262v-66.783c0-24.503-0.982-42.535-2.908-53.95-1.854-11.488-5.889-22.104-12.215-32.101-6.18-9.852-14.215-17.268-23.921-21.958-9.816-4.762-21.013-7.053-33.664-7.053-14.215 0-26.139 1.927-35.918 6.035-9.852 4.035-17.45 10.143-22.94 18.286s-9.307 18.068-11.633 29.629c-2.327 11.524-3.49 28.902-3.49 52.060l0.073 69.91zM411.607 632.009c0-14.978 11.161-27.157 24.721-27.157s24.648 12.179 24.648 27.157v140.583c0 14.942-11.088 27.157-24.648 27.157s-24.721-12.215-24.721-27.157v-140.583zM239.686 561.008h58.567l0.073 202.568 69.219 173.484h-64.057l-36.864-128.877-37.263 129.241h-63.402l73.618-173.957 0.109-202.459z" />
<glyph unicode="&#xe923;" glyph-name="tecnologia" horiz-adv-x="1119" d="M496.612 481.313c8.079 11.42 15.709 22.23 23.387 32.992 78.994 110.621 165.554 215.009 260.353 312.459 31.434 32.317 63.285 64.249 95.249 96.084 9.541 9.477 20.078 17.974 33.072 22.584 11.661 4.144 21.266 1.815 28.366-6.939 6.072-7.501 6.216-15.966 3.55-24.752-3.807-12.545-10.938-23.29-19.451-32.976-28.575-32.526-57.262-65.004-86.27-97.193-94.221-104.581-175.271-218.752-247.744-339.202-15.002-24.896-29.201-50.275-44.3-75.123-4.128-6.81-9.284-13.444-15.275-18.632-26.005-22.567-60.137-16.496-76.81 13.685-6.007 10.858-10.376 22.584-15.468 33.94-26.631 59.238-58.659 115.198-101.16 164.67-8.481 9.862-18.375 18.504-27.274 28.045-4.289 4.61-8.368 9.605-11.485 15.034-8.77 15.291-5.558 32.494 7.935 43.85 9.332 7.87 19.789 6.746 30.229 2.634 15.548-6.055 28.253-16.576 40.927-27.001 40.397-33.201 73.067-73.324 102.879-115.937 6.312-9.043 12.464-18.231 19.291-28.221zM860.535 313.495l-32.43-37.473-44.557 38.598c46.050 74.818 65.598 160.59 59.607 244.516-3.518 48.974-15.837 97.289-36.59 142.488-28.671-34.694-56.619-71.027-84.022-109.207 2.955-13.717 4.963-27.579 5.959-41.537 5.429-75.701-18.038-153.41-71.686-215.33-53.616-61.904-127.277-96.181-202.898-101.61-75.701-5.429-153.459 18.022-215.346 71.686-61.888 53.584-96.181 127.197-101.626 202.882-5.429 75.685 18.038 153.459 71.638 215.395 53.6 61.824 127.245 96.133 202.946 101.61 75.685 5.381 153.41-18.086 215.346-71.686 8.16-7.067 15.789-14.504 23.001-22.214 25.186 29.249 50.885 57.824 77.051 85.628-7.903 8.063-16.094 15.934-24.768 23.451-85.869 74.432-193.791 106.958-298.87 99.457-105.015-7.549-207.139-55.126-281.571-141.043-74.416-85.853-106.958-193.791-99.409-298.806 7.549-104.999 55.077-207.235 140.978-281.619 85.869-74.368 193.807-106.91 298.822-99.409 93.627 6.682 184.973 45.263 256.369 114.347l41.617-36.14-32.446-37.457 258.65-224.020 132.915 153.41-258.682 224.084z" />
<glyph unicode="&#xe924;" glyph-name="diseno" horiz-adv-x="1149" d="M1088.464 68.538c-36.222 53.929-91.222 118.722-154.911 182.411-35.002 35.002-71.751 68.618-106.225 97.24-3.99 3.314-9.332 4.501-14.36 3.149-4.996-1.335-9.084-5.028-10.881-9.892-5.375-14.492-14.162-27.879-26.115-39.799-9.826-9.826-19.999-17.542-30.27-22.966-4.287-2.259-7.304-6.331-8.243-11.079-0.94-4.732 0.33-9.661 3.446-13.371 27.797-33.205 60.21-68.503 93.827-102.136 115.82-115.787 228.376-196.705 273.682-196.705 6.957 0 12.398 1.912 16.157 5.688 17.789 17.839-9.843 68.289-36.106 107.461v0zM619.379 398.902c2.836-18.070 6.084-38.53 16.553-61.133 14.294-30.715 38.414-49.081 64.563-49.081 19.735 0 39.601 9.876 59.089 29.33 27.599 27.599 35.908 63.771 22.224 96.761-18.136 43.789-69.904 72.097-131.895 72.097-13.618 0-27.846-1.302-42.338-3.891-5.671-1.022-10.337-4.996-12.266-10.436-1.929-5.408-0.775-11.458 3.001-15.811 14.607-16.899 17.591-35.859 21.070-57.836v0zM1034.106 928.098h-999.484c-8.82 0-16.009-7.155-16.009-16.009v-678.633c0-8.82 7.188-16.009 16.009-16.009h685.392l-32.743 42.058c-66.277 0-86.012 63.887-91.766 63.887h-470.964v498.81h819.612v-498.794h-37.607l102.037-105.945h25.505c8.82 0 16.009 7.188 16.009 16.009v678.633c0 8.853-7.172 15.992-15.992 15.992v0zM572.045 506.281c3.034-2.803 6.957-4.303 10.947-4.303 1.484 0 2.968 0.198 4.418 0.627 10.106 2.918 24.994 7.139 38.546 10.733 3.281 0.874 6.216 2.753 8.375 5.408 3.743 4.633 8.112 9.48 11.31 13.041 15.976 17.723 37.837 41.992 28.209 70.844-4.963 14.459-14.805 25.11-28.555 30.88-7.238 3.050-15.135 4.501-24.087 4.501-31.012 0-70.069-18.779-111.435-38.629-18.432-8.87-47.828-22.983-64.958-27.962 4.039 10.238 12.035 24.532 17.674 34.622 9.777 17.46 19.9 35.513 25.077 53.121 11.326 38.381-6.298 58.974-17.921 67.909l-0.231 0.181c-10.42 7.798-22.026 11.788-34.491 11.788-35.678 0-71.619-31.622-100.488-57.028-11.838-10.403-21.037-18.284-27.484-22.933-5.144-3.71-7.617-10.073-6.314-16.289l6.479-30.732c1.022-4.913 4.32-9.068 8.853-11.195 4.534-2.143 9.826-2.011 14.261 0.33 13.849 7.271 28.226 19.933 44.894 34.589 13.651 12.019 27.764 24.401 40.706 32.875 5.441 3.578 9.529 5.671 12.497 6.892-3.71-11.046-13.734-28.951-19.57-39.42-9.942-17.74-20.213-36.073-25.044-53.665-11.376-41.399 12.695-60.837 23.461-67.217 7.963-4.798 16.916-7.122 27.352-7.122 27.5 0 61.991 16.586 101.905 35.744 19.867 9.562 40.442 19.455 57.803 25.818 1.319 0.478 2.638 0.973 3.924 1.401-12.233-13.569-26.626-30.253-30.814-49.757-1.187-5.474 0.61-11.195 4.699-15.053v0z" />
<glyph unicode="&#xe925;" glyph-name="nube-01" horiz-adv-x="1075" d="M667.222 927.566c-217.774 0-389.213-176.072-389.213-389.213s171.439-389.213 384.579-389.213v-166.805l268.742 268.742c78.769 69.502 129.738 176.072 129.738 291.91-4.633 208.507-176.072 384.579-393.846 384.579zM338.244 153.774v46.335h-37.068c-111.204 0-203.873 92.67-203.873 203.873 0 92.67 60.235 171.439 143.638 194.606 4.633 37.068 13.9 64.869 23.167 92.67-139.005-18.534-245.575-139.005-245.575-282.643 0-139.005 106.57-259.475 240.941-282.643v-162.172l194.606 194.606c-23.167 13.9-46.335 27.801-64.869 46.335l-50.968-50.968z" />
<glyph unicode="&#xe926;" glyph-name="prociento" horiz-adv-x="1200" d="M1031.026 580.611l1.756 168.617-159.835 52.693-98.36 137.002-161.592-50.937-159.835 54.449-100.117-135.245-161.592-50.937-1.756-168.617-100.117-135.245 98.36-137.002-1.756-168.617 159.835-52.693 98.36-137.002 161.592 50.937 159.835-54.449 100.117 135.245 161.592 50.937 1.756 168.617 100.117 135.245-98.36 137.002zM428.569 498.058c-17.564 17.564-26.346 38.642-26.346 66.744v22.834c0 26.346 10.539 49.18 28.103 66.744s42.154 26.346 73.77 26.346c31.616 0 56.206-8.782 73.77-26.346s24.59-40.398 24.59-66.744v-22.834c0-26.346-8.782-49.18-26.346-64.988-17.564-17.564-42.154-26.346-73.77-24.59-31.616-5.269-56.206 3.513-73.77 22.834zM518.148 257.427l-47.424 24.59 221.31 347.774 47.424-24.59-221.31-347.774zM813.228 308.364c0-26.346-8.782-49.18-26.346-66.744s-42.154-26.346-73.77-24.59c-31.616 0-56.206 8.782-73.77 26.346s-26.346 40.398-26.346 66.744v22.834c0 26.346 8.782 49.18 26.346 64.988 17.564 17.564 42.154 26.346 73.77 26.346s56.206-8.782 73.77-26.346c17.564-17.564 24.59-40.398 24.59-66.744l1.756-22.834zM526.93 536.7c5.269 7.026 7.026 15.808 8.782 24.59v22.834c0 10.539-1.756 19.321-7.026 26.346s-14.051 10.539-24.59 10.539c-10.539 0-19.321-3.513-24.59-10.539s-8.782-15.808-8.782-26.346v-22.834c0-10.539 3.513-19.321 8.782-26.346s14.051-10.539 24.59-10.539c8.782 1.756 17.564 5.269 22.834 12.295zM714.868 368.082c-10.539 0-19.321-3.513-24.59-10.539s-8.782-15.808-8.782-24.59v-22.834c0-10.539 3.513-17.564 10.539-24.59s14.051-10.539 24.59-10.539c12.295 0 21.077 3.513 26.346 8.782 5.269 7.026 7.026 15.808 7.026 26.346v22.834c0 10.539-3.513 19.321-8.782 26.346-8.782 5.269-15.808 8.782-26.346 8.782v0z" />
<glyph unicode="&#xe927;" glyph-name="dolar" horiz-adv-x="1220" d="M1208.090 448l-230.112 465.978c-5.753 28.764-28.764 46.022-57.528 46.022-11.506 0-28.764 0-40.27-5.753s-17.258-11.506-28.764-23.011c-34.517-46.022-74.787-80.539-132.315-109.303-63.281-34.517-149.573-51.775-235.865-69.034-97.798-17.258-195.596-40.27-281.888-80.539-80.539-40.27-138.067-86.292-189.843-155.326-11.506-17.258-17.258-51.775-5.753-74.787l230.112-465.978c11.506-23.011 34.517-40.27 57.528-40.27 11.506 0 28.764 0 40.27 5.753s17.258 11.506 28.764 23.011c34.517 46.022 74.787 80.539 132.315 109.303 74.787 34.517 155.326 51.775 247.371 69.034s189.843 40.27 281.888 80.539c74.787 34.517 138.067 86.292 184.090 155.326 11.506 17.258 11.506 46.022 0 69.034v0zM299.146 5.034c-74.787 155.326-155.326 310.652-230.112 465.978 207.101 287.64 632.809 126.562 839.91 408.449 74.787-155.326 155.326-310.652 230.112-465.978-201.348-281.888-627.056-120.809-839.91-408.449v0zM747.865 442.247c-5.753 11.506-17.258 23.011-28.764 28.764s-23.011 11.506-34.517 17.258c-11.506 5.753-23.011 5.753-40.27 5.753-11.506 0-28.764 0-40.27-5.753-11.506 28.764-23.011 57.528-34.517 80.539 11.506 5.753 23.011 5.753 28.764 5.753s17.258-5.753 23.011-11.506c5.753-5.753 11.506-5.753 17.258-11.506s11.506-5.753 17.258 0c5.753 0 11.506 5.753 11.506 11.506s0 11.506 0 23.011c-5.753 11.506-11.506 17.258-23.011 23.011s-23.011 11.506-34.517 11.506c-11.506 0-23.011 0-34.517 0-5.753 0-17.258-5.753-23.011-5.753 0 5.753-5.753 5.753-5.753 11.506s-5.753 5.753-5.753 5.753-5.753 0-11.506 0-5.753-5.753-5.753-11.506c0-5.753 0-5.753 0-11.506 0 0 5.753-5.753 5.753-5.753-11.506-11.506-23.011-23.011-34.517-28.764-11.506-11.506-17.258-23.011-23.011-34.517s-11.506-23.011-11.506-34.517c0-11.506 5.753-23.011 11.506-34.517 11.506-17.258 28.764-34.517 51.775-40.27s51.775-5.753 80.539-5.753c11.506-28.764 23.011-63.281 40.27-92.045-11.506-5.753-23.011-5.753-28.764-5.753s-11.506 5.753-17.258 5.753c-5.753 5.753-11.506 5.753-11.506 11.506-5.753 5.753-5.753 11.506-11.506 11.506-5.753 5.753-5.753 5.753-11.506 5.753s-11.506 0-17.258 0c-5.753-5.753-11.506-5.753-17.258-17.258 0-5.753 0-11.506 0-23.011 5.753-11.506 11.506-17.258 17.258-23.011s17.258-11.506 28.764-17.258c11.506-5.753 23.011-5.753 40.27-5.753s28.764 5.753 46.022 11.506c5.753-5.753 5.753-17.258 11.506-23.011 0-5.753 5.753-5.753 5.753-5.753 5.753 0 5.753 0 11.506 0s5.753 5.753 5.753 11.506c0 5.753 0 5.753 0 11.506-5.753 5.753-11.506 11.506-11.506 23.011 17.258 11.506 28.764 17.258 40.27 28.764s17.258 23.011 23.011 34.517c5.753 11.506 5.753 23.011 5.753 34.517 5.753 17.258 0 28.764-5.753 40.27v0zM540.764 488.27c-5.753 0-17.258 5.753-17.258 17.258-5.753 5.753-5.753 5.753-5.753 11.506s0 11.506 5.753 17.258c0 5.753 5.753 11.506 11.506 17.258 0 0 5.753 5.753 11.506 11.506 11.506-23.011 23.011-46.022 34.517-74.787-17.258-5.753-28.764-5.753-40.27 0v0zM684.584 361.708c-5.753-5.753-11.506-11.506-17.258-11.506-11.506 28.764-23.011 57.528-34.517 86.292 5.753 0 11.506 0 17.258 0s11.506 0 17.258 0c5.753 0 11.506-5.753 17.258-5.753 5.753-5.753 11.506-5.753 11.506-17.258 5.753-5.753 5.753-11.506 5.753-17.258s0-11.506-5.753-17.258-5.753-17.258-11.506-17.258v0zM488.989 246.652v0c-28.764-11.506-57.528-17.258-80.539-34.517-23.011-11.506-51.775-28.764-69.034-40.27l-34.517-23.011c-5.753-5.753-11.506-17.258-5.753-23.011 5.753-11.506 17.258-11.506 23.011-5.753 0 0 0 0 5.753 0l34.517 23.011c17.258 11.506 40.27 28.764 63.281 40.27 28.764 11.506 51.775 23.011 74.787 28.764v0c0 0 0 0 0 0 11.506 5.753 11.506 17.258 5.753 23.011 0 11.506-5.753 17.258-17.258 11.506v0zM793.888 706.876c-23.011-11.506-51.775-23.011-74.787-28.764 0 0-5.753 0-5.753 0-11.506-5.753-11.506-17.258-11.506-23.011 5.753-11.506 17.258-11.506 23.011-11.506v0c28.764 11.506 57.528 17.258 80.539 34.517 23.011 11.506 51.775 28.764 69.034 40.27l34.517 23.011c11.506 5.753 17.258 11.506 11.506 23.011s-17.258 11.506-23.011 5.753c0 0-5.753 0-5.753-5.753l-34.517-23.011c-23.011-11.506-40.27-23.011-63.281-34.517v0z" />
<glyph unicode="&#xe928;" glyph-name="salud-012" horiz-adv-x="978" d="M488.937 895.423c-244.468 0-447.423-198.342-447.423-447.423s198.342-447.423 447.423-447.423 447.423 198.342 447.423 447.423c0 249.081-202.955 447.423-447.423 447.423zM673.441 388.036h-142.991v-142.991c0-23.063-18.45-46.126-46.126-46.126s-46.126 18.45-46.126 46.126v142.991h-147.604c-23.063 0-46.126 18.45-46.126 46.126 0 23.063 18.45 46.126 46.126 46.126h142.991v142.991c0 23.063 18.45 46.126 46.126 46.126s46.126-18.45 46.126-46.126v-142.991h142.991c23.063 0 46.126-18.45 46.126-46.126 4.613-23.063-18.45-46.126-41.514-46.126z" />
<glyph unicode="&#xe929;" glyph-name="espejo-012" horiz-adv-x="889" d="M442.469 125.63c80.066 0 155.918 42.14 210.7 117.992 54.782 71.638 84.28 168.56 84.28 269.695s-29.498 198.058-84.28 269.695c-54.782 75.852-130.634 117.992-210.7 117.992s-155.918-42.14-210.7-117.992c-54.782-71.638-84.28-168.56-84.28-269.695s29.498-198.058 84.28-269.695c58.996-80.066 130.634-117.992 210.7-117.992zM198.058 509.103c0 185.416 109.564 337.119 248.626 337.119 134.848 0 248.626-151.704 248.626-337.119s-109.564-337.119-248.626-337.119c-139.062 0-248.626 151.704-248.626 337.119zM442.469 209.909c58.996 0 113.778 33.712 151.704 92.708 37.926 54.782 58.996 130.634 58.996 210.7s-21.070 151.704-58.996 210.7c-37.926 58.996-92.708 92.708-151.704 92.708s-113.778-33.712-151.704-92.708c-37.926-58.996-58.996-134.848-58.996-214.914s21.070-151.704 58.996-210.7c42.14-54.782 96.922-88.494 151.704-88.494zM463.539 551.243l-71.638-109.564c-4.214-8.428-12.642-8.428-21.070-8.428-4.214 0-8.428 0-12.642 4.214-12.642 8.428-12.642 21.070-8.428 33.712l71.638 109.564c8.428 12.642 21.070 12.642 33.712 8.428 12.642-12.642 16.856-25.284 8.428-37.926zM341.333 580.741l71.638 109.564c8.428 12.642 21.070 12.642 33.712 8.428 12.642-8.428 12.642-21.070 8.428-33.712l-75.852-109.564c-4.214-8.428-12.642-12.642-21.070-12.642-4.214 0-8.428 0-12.642 4.214-8.428 8.428-12.642 21.070-4.214 33.712zM627.885 91.918h-332.905c-25.284 0-46.354-21.070-46.354-46.354s21.070-46.354 46.354-46.354h332.905c25.284 0 46.354 21.070 46.354 46.354 4.214 25.284-16.856 46.354-46.354 46.354z" />
<glyph unicode="&#xe92a;" glyph-name="upload" d="M984.615 290.462h-78.769c-23.631 0-39.385-15.754-39.385-39.385v-98.462c0-11.815-7.877-19.692-19.692-19.692h-669.538c-11.815 0-19.692 7.877-19.692 19.692v98.462c0 23.631-15.754 39.385-39.385 39.385h-78.769c-23.631 0-39.385-15.754-39.385-39.385v-236.308c0-23.631 15.754-39.385 39.385-39.385h945.231c23.631 0 39.385 15.754 39.385 39.385v236.308c0 23.631-15.754 39.385-39.385 39.385zM303.262 562.215c7.877-7.877 15.754-11.815 27.569-11.815s19.692 3.938 27.569 11.815l39.385 39.385c11.815 11.815 35.446 3.938 35.446-15.754v-259.938c0-23.631 15.754-39.385 39.385-39.385h78.769c23.631 0 39.385 15.754 39.385 39.385v259.938c0 15.754 19.692 27.569 35.446 15.754l39.385-39.385c7.877-7.877 15.754-11.815 27.569-11.815s19.692 3.938 27.569 11.815l55.138 55.138c7.877 7.877 11.815 15.754 11.815 27.569s-3.938 19.692-11.815 27.569l-236.308 236.308c-7.877 7.877-19.692 11.815-27.569 11.815s-19.692-3.938-27.569-11.815l-236.308-236.308c-7.877-7.877-11.815-15.754-11.815-27.569s3.938-19.692 11.815-27.569l55.138-55.138z" />
</font>
</defs>
</svg>
